<?xml version="1.0"?><svg width="640" height="480" xmlns="http://www.w3.org/2000/svg">
 <title>hot pink bow</title>
 <metadata id="metadata7">image/svg+xml</metadata>
 <g>
  <title>Layer 1</title>
  <g id="layer1">
   <g id="g3818">
    <path id="path3791" d="m193.539413,84.730988c-31.296402,0.454834 -54.862137,17.04982 -49.206436,61.62674c3.827637,30.168442 11.151077,33.297134 14.218155,48.412964c1.220154,6.013351 -1.954285,12.048996 -5.192505,20.136368c-63.635284,12.300812 -127.238838,35.333511 -136.788559,76.982712c34.011688,-15.158112 64.942368,-9.409851 95.760895,3.089233c0.155777,30.771698 -16.586868,64.203857 -1.537704,92.270996c1.221024,-25.300415 47.397308,-56.207031 95.092331,-85.235687c0.007263,-0.000702 0.014984,0.000702 0.022247,0c0.1716,-0.018982 0.340668,-0.025116 0.512543,-0.045074c0.059265,-0.007263 0.118988,-0.015503 0.178284,-0.022522c0.044525,-0.005066 0.089233,-0.017273 0.133698,-0.022522c0.747559,-0.089539 1.497925,-0.184082 2.250885,-0.293121c1.344666,-0.194794 2.696442,-0.421295 4.055939,-0.676483c0.678497,-0.127258 1.346405,-0.264008 2.028015,-0.405853c0.682251,-0.142059 1.365326,-0.294647 2.050232,-0.451019c0.163635,-0.037292 0.326569,-0.074585 0.490295,-0.112762c0.518921,-0.12088 1.039825,-0.231903 1.559998,-0.360748c0.686584,-0.170197 1.384155,-0.3573 2.072571,-0.541168c0.045319,-0.012177 0.088348,-0.032898 0.133698,-0.045105c0.272156,-0.07309 0.552185,-0.127808 0.824554,-0.202911c0.370361,-0.102203 0.743591,-0.209717 1.114258,-0.315735c0.683105,-0.195313 1.366211,-0.400665 2.050293,-0.608795c0.424103,-0.12912 0.845886,-0.272003 1.270294,-0.405914c0.631042,-0.199066 1.262909,-0.399231 1.894226,-0.608795c0.332092,-0.110321 0.670807,-0.225098 1.002869,-0.338257c0.252777,-0.086151 0.504974,-0.182831 0.75769,-0.270599c1.12915,-0.392029 2.259521,-0.793671 3.387421,-1.217651c0.081085,-0.030487 0.164032,-0.059509 0.245148,-0.090179c1.303131,-0.492554 2.601074,-1.000153 3.899963,-1.533356c0.073853,-0.030304 0.148987,-0.059753 0.222839,-0.09021c1.084015,-0.447021 2.174469,-0.924042 3.253693,-1.39801c0.497772,-0.218689 0.996613,-0.429749 1.493134,-0.653961c6.555206,-2.960571 12.980469,-6.40332 19.120972,-10.192169c1.203674,-0.742676 2.408478,-1.486481 3.587982,-2.254913c1.336121,-0.870483 2.643097,-1.759979 3.944519,-2.660797c0.572021,-0.395905 1.128967,-0.793793 1.693726,-1.195099c0.643799,-0.45755 1.282654,-0.911255 1.916534,-1.375549c0.277008,-0.20282 0.549561,-0.404694 0.824554,-0.608795c1.805786,-1.339996 3.566742,-2.715302 5.281677,-4.103943c0.85788,-0.694702 1.707611,-1.391785 2.540558,-2.097076c0.515991,-0.436829 1.031799,-0.86734 1.53772,-1.307831c0.068451,-0.059631 0.132294,-0.120728 0.200562,-0.180389c0.995972,-0.870514 1.964722,-1.754883 2.919403,-2.638214c0.05896,-0.054596 0.119476,-0.103302 0.178284,-0.157867c1.978455,-1.837097 3.856079,-3.690399 5.638245,-5.569672c0.040588,-0.042786 0.070953,-0.092468 0.11142,-0.135284c0.873016,-0.923386 1.741577,-1.843201 2.562805,-2.773514c0.10202,-0.115631 0.210846,-0.222595 0.312012,-0.338257c0.327942,-0.374756 0.639099,-0.751892 0.958282,-1.127457c0.318481,-0.374802 0.626404,-0.752014 0.935974,-1.127472c0.095215,-0.115479 0.195435,-0.222733 0.289734,-0.338211c0.520935,-0.637787 1.021118,-1.277557 1.515411,-1.916687c0.270416,-0.349472 0.517761,-0.687576 0.779999,-1.037247c0.300598,-0.400772 0.601746,-0.794174 0.891418,-1.195114c0.06601,-0.091324 0.135193,-0.179276 0.200562,-0.270584c0.015747,-0.022018 0.028809,-0.045624 0.044556,-0.067657c2.683472,0.57193 5.518768,0.942413 8.513092,1.082382c2.43576,0.113876 4.842804,-0.128387 7.198212,-0.653946c0.139679,0.192856 0.303528,0.370956 0.44574,0.563736c0.131927,0.178848 0.244751,0.362411 0.378845,0.541183c0.263672,0.3517 0.530365,0.685837 0.802277,1.037247c0.493561,0.638092 0.995392,1.28006 1.515411,1.916687c0.094391,0.115524 0.194519,0.222794 0.289703,0.338211c0.425568,0.516144 0.850281,1.041199 1.292572,1.555893c0.201019,0.233994 0.397308,0.465485 0.601685,0.699036c0.101227,0.115707 0.209991,0.222687 0.312012,0.338257c0.771759,0.874222 1.567047,1.747543 2.384552,2.615677c0.284851,0.30249 0.578918,0.600403 0.869141,0.901978c0.425537,0.44223 0.855774,0.890289 1.292572,1.330414c0.420288,0.423431 0.839844,0.841431 1.270294,1.262726c0.814545,0.797546 1.624176,1.578827 2.473663,2.367676c0.058746,0.054565 0.119354,0.103333 0.178284,0.157867c0.998383,0.923798 2.032013,1.841339 3.075378,2.750946c0.067505,0.058838 0.132996,0.121674 0.200623,0.180389c0.840485,0.730011 1.69519,1.445313 2.562805,2.164734c0.350128,0.290405 0.693054,0.590881 1.047424,0.879395c1.945801,1.584045 3.953674,3.146851 6.017059,4.667694c0.373993,0.275635 0.759094,0.538483 1.136566,0.811768c4.456543,3.226593 9.160217,6.295959 14.017639,9.132385c0.169769,0.099121 0.342407,0.194611 0.512543,0.293121c4.937439,2.860535 10.029236,5.475128 15.19873,7.802002c0.431458,0.194305 0.860138,0.396301 1.292572,0.586304c1.085236,0.476868 2.163544,0.948486 3.253693,1.39801c0.080139,0.033081 0.164917,0.057312 0.245117,0.09021c2.61203,1.07193 5.243134,2.05072 7.866821,2.953918c0.202362,0.069733 0.399353,0.156891 0.601715,0.225525c1.021973,0.346497 2.05423,0.673218 3.075348,0.992157c0.297546,0.092987 0.594086,0.202576 0.891449,0.293152c0.006439,0.002197 0.015533,-0.002167 0.022247,0c0.847748,0.257904 1.694489,0.505981 2.540527,0.74411c0.529541,0.149109 1.05368,0.287262 1.582306,0.428436c0.688477,0.183868 1.363708,0.371002 2.050262,0.541168c0.043732,0.010803 0.089996,0.01178 0.133698,0.022552c0.642731,0.158508 1.298157,0.304718 1.938812,0.450958c1.178955,0.268829 2.350677,0.518036 3.521118,0.744171c0.238708,0.046082 0.474915,0.090912 0.713165,0.135254c0.141663,0.026337 0.281921,0.064484 0.423431,0.090179c0.603149,0.109558 1.204803,0.218048 1.805145,0.315735c0.83551,0.135925 1.666565,0.24823 2.496002,0.360779c0.432129,0.058685 0.862274,0.128174 1.292511,0.180359c0.081421,0.009888 0.163818,0.012909 0.245117,0.022522c0.096893,0.011475 0.192932,0.011414 0.289734,0.022522c0.13385,0.015381 0.267517,0.030396 0.401154,0.045074c0.007324,0.000702 0.014893,-0.000702 0.022278,0c47.695038,29.028656 93.871246,59.935272 95.092377,85.235687c15.049072,-28.067139 -1.671326,-61.499298 -1.515503,-92.270996c30.818481,-12.499084 61.749268,-18.247345 95.760925,-3.089233c-9.550781,-41.6539 -73.168457,-64.682907 -136.810852,-76.982712c-3.237793,-8.085663 -6.412537,-14.123856 -5.192505,-20.136368c3.067078,-15.115829 10.390442,-18.244522 14.21814,-48.412964c12.479614,-98.360737 -117.301208,-60.406464 -158.494629,-13.709854c-1.55304,-0.20192 -3.166321,-0.32254 -4.835938,-0.383347c-2.196472,-0.079971 -4.335968,0.069183 -6.395935,0.428436c-22.505524,-25.552925 -71.571136,-48.511078 -109.354996,-47.961975z" stroke-dashoffset="0" stroke-miterlimit="4" stroke-linecap="round" stroke-width="4" stroke="#ffffff" fill="#fc71b2"/>
    <path d="m347.949524,199.322937c65.043945,2.335373 233.559387,19.732147 249.597839,89.681091c-34.011658,-15.158142 -64.945557,-9.406677 -95.764038,3.092438c-0.155823,30.771698 16.577271,64.19101 1.528198,92.258118c-2.566711,-53.182129 -203.757751,-131.079315 -200.187714,-164.415329l44.825714,-20.616318z" id="path3781" stroke-dashoffset="0" stroke-miterlimit="4" stroke-linecap="round" stroke-width="6" stroke="#ffffff" fill="#fc71b2"/>
    <path d="m298.969055,155.612656c0.956635,-53.978882 185.58136,-128.593857 170.80719,-12.147964c-3.827637,30.168457 -11.153992,33.301025 -14.221008,48.41687c-3.030823,14.936539 21.006042,29.79332 5.969177,76.751587c-21.89267,68.368073 -137.266876,9.048706 -155.478333,-37.998947l-7.077026,-75.021545z" id="path3783" stroke-width="6" stroke="#ffffff" fill="#fc71b2"/>
    <path id="path3785" d="m447.691132,289.953369c-6.73764,9.801544 -21.300201,10.265747 -34.613708,9.582245c-41.69165,-2.140472 -95.125397,-38.143463 -107.031342,-68.901367c1.760834,-3.206955 158.227783,35.195374 141.64505,59.319122z" stroke-width="6" stroke="#ffffff" fill="#fc71b2"/>
    <path d="m344.632324,183.664246c18.424469,-0.399887 44.674316,-15.68222 59.820648,-26.359009" id="path3787" stroke-dashoffset="0" stroke-miterlimit="4" stroke-linecap="round" stroke-width="4" stroke="#ffffff" fill="#fc71b2"/>
    <path d="m348.238922,193.998535c29.455841,7.874435 36.320618,14.518051 46.034454,21.665512" id="path3789" stroke-dashoffset="0" stroke-miterlimit="4" stroke-linecap="round" stroke-width="4" stroke="#ffffff" fill="#fc71b2"/>
    <path id="path2988" d="m263.312195,199.322937c-65.043915,2.335373 -233.559303,19.732147 -249.597855,89.681091c34.011688,-15.158142 64.945557,-9.406677 95.764099,3.092438c0.155777,30.771698 -16.577301,64.19101 -1.528168,92.258118c2.566635,-53.182129 203.757675,-131.079315 200.187668,-164.415329l-44.825745,-20.616318z" stroke-dashoffset="0" stroke-miterlimit="4" stroke-linecap="round" stroke-width="6" stroke="#ffffff" fill="#fc71b2"/>
    <path id="path2982" d="m312.292694,155.612656c-0.956635,-53.978859 -185.581314,-128.593836 -170.807175,-12.147934c3.827652,30.168427 11.153946,33.301041 14.221069,48.41684c3.030716,14.936584 -21.00618,29.79332 -5.969284,76.751648c21.89267,68.368011 137.266937,9.048645 155.478394,-37.998962l7.076996,-75.021591z" stroke-width="6" stroke="#ffffff" fill="#fc71b2"/>
    <path d="m163.570618,289.953369c6.73764,9.801544 21.300186,10.265747 34.613739,9.582245c41.69162,-2.140472 95.125366,-38.143463 107.031342,-68.901367c-1.760803,-3.206955 -158.227829,35.195374 -141.645081,59.319122z" id="path3001" stroke-width="6" stroke="#ffffff" fill="#fc71b2"/>
    <path id="path2997" d="m266.629486,183.664246c-18.42453,-0.399841 -44.674408,-15.68222 -59.820648,-26.359009" stroke-dashoffset="0" stroke-miterlimit="4" stroke-linecap="round" stroke-width="4" stroke="#ffffff" fill="#fc71b2"/>
    <path id="path2986" d="m348.202728,188.130753c0,31.311752 -19.719604,57.725754 -41.76944,56.694946c-30.167847,-1.410339 -44.638,-25.518005 -41.76944,-56.694946c3.343536,-36.339645 19.028198,-59.584732 41.76944,-58.756561c31.195923,1.136047 41.76944,27.444824 41.76944,58.756561z" stroke-dashoffset="0" stroke-miterlimit="4" stroke-linecap="round" stroke-width="6" stroke="#ffffff" fill="#fc71b2"/>
    <path id="path2999" d="m263.022797,193.998535c-29.45578,7.874435 -36.320618,14.518051 -46.034393,21.665512" stroke-dashoffset="0" stroke-miterlimit="4" stroke-linecap="round" stroke-width="4" stroke="#ffffff" fill="#fc71b2"/>
   </g>
  </g>
 </g>
</svg>